g boardBorder3shadow
v -5.71399832 0 -6.33600187
v 6.3360014 0 -6.33599854
v 4.99790525 0 -4.99632454
v -5.01771975 0 -4.99632549
v 4.9979043 0 5.01960754
v -5.71400213 0 5.71399784
v 6.33599758 0 5.71400118
v -5.01772118 0 5.01960611
vt 0 1
vt 1 1
vt 0.888954699 0.888823748
vt 0.0577824488 0.888823628
vt 0.888954878 0.057626009
vt 0 0
vt 1 0
vt 0.0577826276 0.0576258525
vn -0 1 0
vn -0 1 0
vn -0 1 0
vn -0 1 0
vn -0 1 0
vn -0 1 0
vn -0 1 0
vn -0 1 0
g boardBorder3shadow_0
f 3/3/3 2/2/2 1/1/1
f 4/4/4 3/3/3 1/1/1
f 3/3/3 5/5/5 2/2/2
f 4/4/4 1/1/1 6/6/6
f 5/5/5 7/7/7 2/2/2
f 8/8/8 4/4/4 6/6/6
f 8/8/8 6/6/6 7/7/7
f 5/5/5 8/8/8 7/7/7
