g checkers
v -4 0 3
v -3 0 4
v -4 0 4
v -3 0 3
v -4 0 2
v -2 0 4
v -3 0 2
v -4 0 1
v -2 0 3
v -1 0 4
v -3 0 1
v -4 0.000311050419 0
v -3 0 0
v -1 0 3
v -0 0 4
v -2 0 2
v -0 0 3
v 1 0 4
v -2 0 1
v -1 0 2
v 1 0 3
v 2 0 4
v -0 0 2
v -1 0 1
v 2 0 3
v 3 0 4
v 1 0 2
v 3 0 3
v 4 0 4
v 4 0 3
v 2 0 2
v 3 0 2
v 4 0 2
v -0 0 1
v -2 0 0
v 1 0 1
v 2 0 1
v 3 0 1
v 4 0 1
v -1 0 0
v -0 0 0
v 1 0 0
v 3 0 0
v 4 0 0
v 2 0 0
v 3 0 -1
v 4 0 -1
v 2 0 -1
v 1 0 -1
v -0 0 -1
v -1 0 -1
v 3 0 -2
v 4 0 -2
v 2 0 -2
v 1 0 -2
v -0 0 -2
v 3 0 -3
v 4 0 -3
v 2 0 -3
v 3 0 -4
v 4 0 -4
v 2 0 -4
v 1 0 -4
v 1 0 -3
v -0 0 -4
v -0 0 -3
v -1 0 -4
v -1 0 -3
v -2 0 -4
v -1 0 -2
v -2 0 -3
v -3 0 -4
v -2 0 -2
v -3 0 -3
v -4 0 -4
v -4 0 -3
v -3 0 -2
v -4 0 -2
v -2 0 -1
v -3 0 -1
v -4 0 -1
v -4 0 0
vt 0 0.125
vt 0.125 0
vt 0 0
vt 0.125 0.125
vt 0 0.25
vt 0.25 0
vt 0.125 0.25
vt 0 0.375
vt 0.25 0.125
vt 0.375 0
vt 0.125 0.375
vt 0 0.5
vt 0.125 0.5
vt 0.375 0.125
vt 0.5 0
vt 0.25 0.25
vt 0.5 0.125
vt 0.625 0
vt 0.25 0.375
vt 0.375 0.25
vt 0.625 0.125
vt 0.75 0
vt 0.5 0.25
vt 0.375 0.375
vt 0.75 0.125
vt 0.875 0
vt 0.625 0.25
vt 0.875 0.125
vt 1 0
vt 1 0.125
vt 0.75 0.25
vt 0.875 0.25
vt 1 0.25
vt 0.5 0.375
vt 0.25 0.5
vt 0.625 0.375
vt 0.75 0.375
vt 0.875 0.375
vt 1 0.375
vt 0.375 0.5
vt 0.5 0.5
vt 0.625 0.5
vt 0.875 0.5
vt 1 0.5
vt 0.75 0.5
vt 0.875 0.625
vt 1 0.625
vt 0.75 0.625
vt 0.625 0.625
vt 0.5 0.625
vt 0.375 0.625
vt 0.875 0.75
vt 1 0.75
vt 0.75 0.75
vt 0.625 0.75
vt 0.5 0.75
vt 0.875 0.875
vt 1 0.875
vt 0.75 0.875
vt 0.875 1
vt 1 1
vt 0.75 1
vt 0.625 1
vt 0.625 0.875
vt 0.5 1
vt 0.5 0.875
vt 0.375 1
vt 0.375 0.875
vt 0.25 1
vt 0.375 0.75
vt 0.25 0.875
vt 0.125 1
vt 0.25 0.75
vt 0.125 0.875
vt 0 1
vt 0 0.875
vt 0.125 0.75
vt 0 0.75
vt 0.25 0.625
vt 0.125 0.625
vt 0 0.625
vt 0 0.5
vn -0 1 0
vn -0 1 0
vn -0 1 0
vn -0 1 0
vn -0 1 0
vn -0 1 0
vn -0 1 0
vn -0 1 0
vn -0 1 0
vn -0 1 0
vn -0 1 0
vn 0.000155525224 1 0.000155525224
vn -0 1 0
vn -0 1 0
vn -0 1 0
vn -0 1 0
vn -0 1 0
vn -0 1 0
vn -0 1 0
vn -0 1 0
vn -0 1 0
vn -0 1 0
vn -0 1 0
vn -0 1 0
vn -0 1 0
vn -0 1 0
vn -0 1 0
vn -0 1 0
vn -0 1 0
vn -0 1 0
vn -0 1 0
vn -0 1 0
vn -0 1 0
vn -0 1 0
vn -0 1 0
vn -0 1 0
vn -0 1 0
vn -0 1 0
vn -0 1 0
vn -0 1 0
vn -0 1 0
vn -0 1 0
vn -0 1 0
vn -0 1 0
vn -0 1 0
vn -0 1 0
vn -0 1 0
vn -0 1 0
vn -0 1 0
vn -0 1 0
vn -0 1 0
vn -0 1 0
vn -0 1 0
vn -0 1 0
vn -0 1 0
vn -0 1 0
vn -0 1 0
vn -0 1 0
vn -0 1 0
vn -0 1 0
vn -0 1 0
vn -0 1 0
vn -0 1 0
vn -0 1 0
vn -0 1 0
vn -0 1 0
vn -0 1 0
vn -0 1 0
vn -0 1 0
vn -0 1 0
vn -0 1 0
vn -0 1 0
vn -0 1 0
vn -0 1 0
vn -0 1 0
vn -0 1 0
vn -0 1 0
vn -0 1 0
vn -0 1 0
vn -0 1 0
vn -0 1 0
vn -0 1 0
g checkers_0
f 3/3/3 2/2/2 1/1/1
f 2/2/2 4/4/4 1/1/1
f 1/1/1 4/4/4 5/5/5
f 2/2/2 6/6/6 4/4/4
f 4/4/4 7/7/7 5/5/5
f 5/5/5 7/7/7 8/8/8
f 6/6/6 9/9/9 4/4/4
f 4/4/4 9/9/9 7/7/7
f 6/6/6 10/10/10 9/9/9
f 7/7/7 11/11/11 8/8/8
f 8/8/8 11/11/11 12/12/12
f 11/11/11 13/13/13 12/12/12
f 10/10/10 14/14/14 9/9/9
f 10/10/10 15/15/15 14/14/14
f 9/9/9 16/16/16 7/7/7
f 7/7/7 16/16/16 11/11/11
f 9/9/9 14/14/14 16/16/16
f 15/15/15 17/17/17 14/14/14
f 15/15/15 18/18/18 17/17/17
f 16/16/16 19/19/19 11/11/11
f 11/11/11 19/19/19 13/13/13
f 14/14/14 20/20/20 16/16/16
f 14/14/14 17/17/17 20/20/20
f 16/16/16 20/20/20 19/19/19
f 18/18/18 21/21/21 17/17/17
f 18/18/18 22/22/22 21/21/21
f 17/17/17 23/23/23 20/20/20
f 17/17/17 21/21/21 23/23/23
f 20/20/20 24/24/24 19/19/19
f 20/20/20 23/23/23 24/24/24
f 22/22/22 25/25/25 21/21/21
f 22/22/22 26/26/26 25/25/25
f 21/21/21 27/27/27 23/23/23
f 21/21/21 25/25/25 27/27/27
f 26/26/26 28/28/28 25/25/25
f 26/26/26 29/29/29 28/28/28
f 29/29/29 30/30/30 28/28/28
f 25/25/25 28/28/28 31/31/31
f 25/25/25 31/31/31 27/27/27
f 28/28/28 30/30/30 32/32/32
f 28/28/28 32/32/32 31/31/31
f 30/30/30 33/33/33 32/32/32
f 23/23/23 27/27/27 34/34/34
f 23/23/23 34/34/34 24/24/24
f 19/19/19 24/24/24 35/35/35
f 19/19/19 35/35/35 13/13/13
f 27/27/27 31/31/31 36/36/36
f 27/27/27 36/36/36 34/34/34
f 31/31/31 32/32/32 37/37/37
f 31/31/31 37/37/37 36/36/36
f 32/32/32 33/33/33 38/38/38
f 32/32/32 38/38/38 37/37/37
f 33/33/33 39/39/39 38/38/38
f 24/24/24 34/34/34 40/40/40
f 24/24/24 40/40/40 35/35/35
f 34/34/34 36/36/36 41/41/41
f 34/34/34 41/41/41 40/40/40
f 36/36/36 37/37/37 42/42/42
f 36/36/36 42/42/42 41/41/41
f 38/38/38 39/39/39 43/43/43
f 39/39/39 44/44/44 43/43/43
f 37/37/37 38/38/38 45/45/45
f 37/37/37 45/45/45 42/42/42
f 38/38/38 43/43/43 45/45/45
f 43/43/43 44/44/44 46/46/46
f 44/44/44 47/47/47 46/46/46
f 45/45/45 43/43/43 48/48/48
f 43/43/43 46/46/46 48/48/48
f 42/42/42 45/45/45 49/49/49
f 45/45/45 48/48/48 49/49/49
f 41/41/41 42/42/42 50/50/50
f 42/42/42 49/49/49 50/50/50
f 40/40/40 41/41/41 51/51/51
f 41/41/41 50/50/50 51/51/51
f 46/46/46 47/47/47 52/52/52
f 47/47/47 53/53/53 52/52/52
f 48/48/48 46/46/46 54/54/54
f 46/46/46 52/52/52 54/54/54
f 49/49/49 48/48/48 55/55/55
f 48/48/48 54/54/54 55/55/55
f 50/50/50 49/49/49 56/56/56
f 49/49/49 55/55/55 56/56/56
f 52/52/52 53/53/53 57/57/57
f 53/53/53 58/58/58 57/57/57
f 54/54/54 52/52/52 59/59/59
f 52/52/52 57/57/57 59/59/59
f 57/57/57 58/58/58 60/60/60
f 58/58/58 61/61/61 60/60/60
f 57/57/57 60/60/60 62/62/62
f 59/59/59 57/57/57 62/62/62
f 59/59/59 62/62/62 63/63/63
f 54/54/54 59/59/59 64/64/64
f 64/64/64 59/59/59 63/63/63
f 55/55/55 54/54/54 64/64/64
f 64/64/64 63/63/63 65/65/65
f 55/55/55 64/64/64 66/66/66
f 66/66/66 64/64/64 65/65/65
f 56/56/56 55/55/55 66/66/66
f 66/66/66 65/65/65 67/67/67
f 68/68/68 66/66/66 67/67/67
f 56/56/56 66/66/66 68/68/68
f 68/68/68 67/67/67 69/69/69
f 70/70/70 56/56/56 68/68/68
f 50/50/50 56/56/56 70/70/70
f 51/51/51 50/50/50 70/70/70
f 71/71/71 68/68/68 69/69/69
f 70/70/70 68/68/68 71/71/71
f 71/71/71 69/69/69 72/72/72
f 51/51/51 70/70/70 73/73/73
f 73/73/73 70/70/70 71/71/71
f 74/74/74 71/71/71 72/72/72
f 73/73/73 71/71/71 74/74/74
f 74/74/74 72/72/72 75/75/75
f 76/76/76 74/74/74 75/75/75
f 77/77/77 74/74/74 76/76/76
f 77/77/77 73/73/73 74/74/74
f 78/78/78 77/77/77 76/76/76
f 79/79/79 51/51/51 73/73/73
f 79/79/79 73/73/73 77/77/77
f 40/40/40 51/51/51 79/79/79
f 35/35/35 40/40/40 79/79/79
f 80/80/80 77/77/77 78/78/78
f 80/80/80 79/79/79 77/77/77
f 35/35/35 79/79/79 80/80/80
f 81/81/81 80/80/80 78/78/78
f 13/13/13 35/35/35 80/80/80
f 13/13/13 80/80/80 81/81/81
f 82/82/82 13/13/13 81/81/81
