g Cylinder
v 0.475528568 -1 -0.154508591
v 0.40450877 -1 -0.293892801
v 0.293892801 -1 -0.40450874
v 0.154508576 -1 -0.475528508
v -0 -1 -0.500000238
v -0.154508576 -1 -0.475528479
v -0.293892741 -1 -0.40450865
v -0.404508621 -1 -0.293892711
v -0.475528389 -1 -0.154508531
v -0.500000119 -1 0
v -0.475528389 -1 0.154508531
v -0.404508591 -1 0.293892682
v -0.293892682 -1 0.404508561
v -0.154508531 -1 0.47552833
v -1.49011612E-08 -1 0.50000006
v 0.154508486 -1 0.4755283
v 0.293892622 -1 0.404508531
v 0.404508501 -1 0.293892652
v 0.47552827 -1 0.154508501
v 0.5 -1 0
v 0.475528568 1 -0.154508591
v 0.40450877 1 -0.293892801
v 0.293892801 1 -0.40450874
v 0.154508576 1 -0.475528508
v -0 1 -0.500000238
v -0.154508576 1 -0.475528479
v -0.293892741 1 -0.40450865
v -0.404508621 1 -0.293892711
v -0.475528389 1 -0.154508531
v -0.500000119 1 0
v -0.475528389 1 0.154508531
v -0.404508591 1 0.293892682
v -0.293892682 1 0.404508561
v -0.154508531 1 0.47552833
v -1.49011612E-08 1 0.50000006
v 0.154508486 1 0.4755283
v 0.293892622 1 0.404508531
v 0.404508501 1 0.293892652
v 0.47552827 1 0.154508501
v 0.5 1 0
v -0 -1 0
v -0 1 0
v -0.500000119 -1 0
v -0.500000119 1 0
v 0.5 -1 0
v 0.5 1 0
v 0.475528568 1 -0.154508591
v 0.475528568 -1 -0.154508591
v 0.40450877 -1 -0.293892801
v 0.475528568 -1 -0.154508591
v 0.293892801 -1 -0.40450874
v 0.154508576 -1 -0.475528508
v -0 -1 -0.500000238
v -0.154508576 -1 -0.475528479
v -0.293892741 -1 -0.40450865
v -0.404508621 -1 -0.293892711
v -0.475528389 -1 -0.154508531
v -0.500000119 -1 0
v -0.475528389 -1 0.154508531
v -0.404508591 -1 0.293892682
v -0.293892682 -1 0.404508561
v -0.154508531 -1 0.47552833
v -1.49011612E-08 -1 0.50000006
v 0.154508486 -1 0.4755283
v 0.293892622 -1 0.404508531
v 0.404508501 -1 0.293892652
v 0.47552827 -1 0.154508501
v 0.5 -1 0
v 0.475528568 1 -0.154508591
v 0.40450877 1 -0.293892801
v 0.293892801 1 -0.40450874
v 0.154508576 1 -0.475528508
v -0 1 -0.500000238
v -0.154508576 1 -0.475528479
v -0.293892741 1 -0.40450865
v -0.404508621 1 -0.293892711
v -0.475528389 1 -0.154508531
v -0.500000119 1 0
v -0.475528389 1 0.154508531
v -0.404508591 1 0.293892682
v -0.293892682 1 0.404508561
v -0.154508531 1 0.47552833
v -1.49011612E-08 1 0.50000006
v 0.154508486 1 0.4755283
v 0.293892622 1 0.404508531
v 0.404508501 1 0.293892652
v 0.47552827 1 0.154508501
v 0.5 1 0
vt 0.100599855 0.000453738117
vt 0.200505391 0.000453738117
vt 0.300410986 0.000453738117
vt 0.400316507 0.000453738117
vt 0.500221968 0.000453738117
vt 0.60012728 0.000453738117
vt 0.700032711 0.000453738117
vt 0.799937963 0.000453738117
vt 0.899843216 0.000453738117
vt 0.999749005 0.000453738117
vt 0.100599349 0.000453738117
vt 0.200505018 0.000453738117
vt 0.300410569 0.000453738117
vt 0.400316 0.000453738117
vt 0.500221491 0.000453738117
vt 0.600126803 0.000453738117
vt 0.700032175 0.000453738117
vt 0.799937487 0.000453738117
vt 0.899842799 0.000453738117
vt 0.999748051 0.000453738117
vt 0.100599565 0.999430776
vt 0.200505272 0.999430776
vt 0.300410986 0.999430776
vt 0.400316507 0.999430776
vt 0.500221968 0.999430776
vt 0.60012728 0.999430776
vt 0.700032771 0.999430776
vt 0.799938142 0.999430776
vt 0.899843454 0.999430776
vt 0.999749124 0.999430776
vt 0.100599647 0.999430776
vt 0.200505093 0.999430776
vt 0.300410569 0.999430776
vt 0.400316 0.999430776
vt 0.500221491 0.999430776
vt 0.600126803 0.999430776
vt 0.700032115 0.999430776
vt 0.799937129 0.999430776
vt 0.899842441 0.999430776
vt 0.999747813 0.999430776
vt 0.500223875 0.49994427
vt 0.500224471 0.49994415
vt 0.000693685608 0.000453738117
vt 0.000694044633 0.999430776
vt 0.000694270013 0.000453738117
vt 0.000693908893 0.999430776
vt 0.100599565 0.999430776
vt 0.100599855 0.000453738117
vt 0.0988569036 0.791553915
vt 0.0283887684 0.653252304
vt 0.208613634 0.901310742
vt 0.346915364 0.971779048
vt 0.500223994 0.996060848
vt 0.653532684 0.971779048
vt 0.791834414 0.901310623
vt 0.901591003 0.791553557
vt 0.972058833 0.653252065
vt 0.996340454 0.499943733
vt 0.972058594 0.346635491
vt 0.901590407 0.208334133
vt 0.791833699 0.0985775515
vt 0.653531969 0.0281094424
vt 0.500223398 0.00382787548
vt 0.346915007 0.0281097181
vt 0.208613634 0.0985779464
vt 0.0988570824 0.208334684
vt 0.0283891335 0.346636057
vt 0.00410750508 0.49994415
vt 0.972059608 0.653252304
vt 0.90159148 0.791553915
vt 0.791834652 0.901310742
vt 0.653532982 0.971779048
vt 0.500224292 0.996060848
vt 0.346915662 0.971779048
vt 0.208614185 0.901310623
vt 0.098857604 0.791553676
vt 0.0283895954 0.653252184
vt 0.00410802662 0.499943852
vt 0.0283897147 0.34663555
vt 0.09885782 0.208334133
vt 0.208614424 0.0985775515
vt 0.346915871 0.0281093828
vt 0.500224173 0.00382772274
vt 0.653532684 0.0281094126
vt 0.791834414 0.0985775515
vt 0.901591003 0.208334252
vt 0.972059071 0.346635669
vt 0.996340811 0.499943912
vn 0.951056778 0 -0.309016019
vn 0.809017003 0 -0.587785363
vn 0.587785065 0 -0.809017122
vn 0.309016794 0 -0.95105654
vn -0 0 -1
vn -0.309017122 0 -0.95105648
vn -0.587785423 0 -0.809016824
vn -0.809017062 0 -0.587785125
vn -0.95105654 0 -0.309016854
vn -1 0 0
vn -0.95105654 0 0.309017032
vn -0.809016883 0 0.587785363
vn -0.587785184 0 0.809017062
vn -0.309016943 0 0.95105654
vn -0 0 1
vn 0.309017062 0 0.95105654
vn 0.587785244 0 0.809017003
vn 0.809017003 0 0.587785244
vn 0.95105654 0 0.309016943
vn 1 0 0
vn 0.951056778 0 -0.309016019
vn 0.809017003 0 -0.587785363
vn 0.587785065 0 -0.809017122
vn 0.309016794 0 -0.95105654
vn -0 0 -1
vn -0.309017122 0 -0.95105648
vn -0.587785423 0 -0.809016824
vn -0.809017062 0 -0.587785125
vn -0.95105654 0 -0.309016854
vn -1 0 0
vn -0.95105654 0 0.309017032
vn -0.809016883 0 0.587785363
vn -0.587785184 0 0.809017062
vn -0.309016943 0 0.95105654
vn -0 0 1
vn 0.309017062 0 0.95105654
vn 0.587785244 0 0.809017003
vn 0.809017003 0 0.587785244
vn 0.95105654 0 0.309016943
vn 1 0 0
vn -0 -1 0
vn -0 1 0
vn -1 0 0
vn -1 0 0
vn 1 0 0
vn 1 0 0
vn 0.951056778 0 -0.309016019
vn 0.951056778 0 -0.309016019
vn -0 -1 0
vn -0 -1 0
vn -0 -1 0
vn -0 -1 0
vn -0 -1 0
vn -0 -1 0
vn -0 -1 0
vn -0 -1 0
vn -0 -1 0
vn -0 -1 0
vn -0 -1 0
vn -0 -1 0
vn -0 -1 0
vn -0 -1 0
vn -0 -1 0
vn -0 -1 0
vn -0 -1 0
vn -0 -1 0
vn -0 -1 0
vn -0 -1 0
vn -0 1 0
vn -0 1 0
vn -0 1 0
vn -0 1 0
vn -0 1 0
vn -0 1 0
vn -0 1 0
vn -0 1 0
vn -0 1 0
vn -0 1 0
vn -0 1 0
vn -0 1 0
vn -0 1 0
vn -0 1 0
vn -0 1 0
vn -0 1 0
vn -0 1 0
vn -0 1 0
vn -0 1 0
vn -0 1 0
g Cylinder_0
f 22/22/22 21/21/21 1/1/1
f 2/2/2 22/22/22 1/1/1
f 23/23/23 22/22/22 2/2/2
f 3/3/3 23/23/23 2/2/2
f 24/24/24 23/23/23 3/3/3
f 4/4/4 24/24/24 3/3/3
f 25/25/25 24/24/24 4/4/4
f 5/5/5 25/25/25 4/4/4
f 26/26/26 25/25/25 5/5/5
f 6/6/6 26/26/26 5/5/5
f 27/27/27 26/26/26 6/6/6
f 7/7/7 27/27/27 6/6/6
f 28/28/28 27/27/27 7/7/7
f 8/8/8 28/28/28 7/7/7
f 29/29/29 28/28/28 8/8/8
f 9/9/9 29/29/29 8/8/8
f 30/30/30 29/29/29 9/9/9
f 10/10/10 30/30/30 9/9/9
f 31/31/31 44/44/44 43/43/43
f 11/11/11 31/31/31 43/43/43
f 32/32/32 31/31/31 11/11/11
f 12/12/12 32/32/32 11/11/11
f 33/33/33 32/32/32 12/12/12
f 13/13/13 33/33/33 12/12/12
f 34/34/34 33/33/33 13/13/13
f 14/14/14 34/34/34 13/13/13
f 35/35/35 34/34/34 14/14/14
f 15/15/15 35/35/35 14/14/14
f 36/36/36 35/35/35 15/15/15
f 16/16/16 36/36/36 15/15/15
f 37/37/37 36/36/36 16/16/16
f 17/17/17 37/37/37 16/16/16
f 38/38/38 37/37/37 17/17/17
f 18/18/18 38/38/38 17/17/17
f 39/39/39 38/38/38 18/18/18
f 19/19/19 39/39/39 18/18/18
f 40/40/40 39/39/39 19/19/19
f 20/20/20 40/40/40 19/19/19
f 47/47/47 46/46/46 45/45/45
f 48/48/48 47/47/47 45/45/45
f 88/88/88 42/42/42 87/87/87
f 87/87/87 42/42/42 86/86/86
f 69/69/69 42/42/42 88/88/88
f 86/86/86 42/42/42 85/85/85
f 70/70/70 42/42/42 69/69/69
f 85/85/85 42/42/42 84/84/84
f 71/71/71 42/42/42 70/70/70
f 84/84/84 42/42/42 83/83/83
f 72/72/72 42/42/42 71/71/71
f 83/83/83 42/42/42 82/82/82
f 73/73/73 42/42/42 72/72/72
f 82/82/82 42/42/42 81/81/81
f 74/74/74 42/42/42 73/73/73
f 81/81/81 42/42/42 80/80/80
f 75/75/75 42/42/42 74/74/74
f 80/80/80 42/42/42 79/79/79
f 76/76/76 42/42/42 75/75/75
f 79/79/79 42/42/42 78/78/78
f 77/77/77 42/42/42 76/76/76
f 78/78/78 42/42/42 77/77/77
f 67/67/67 41/41/41 68/68/68
f 68/68/68 41/41/41 50/50/50
f 66/66/66 41/41/41 67/67/67
f 50/50/50 41/41/41 49/49/49
f 65/65/65 41/41/41 66/66/66
f 49/49/49 41/41/41 51/51/51
f 64/64/64 41/41/41 65/65/65
f 51/51/51 41/41/41 52/52/52
f 63/63/63 41/41/41 64/64/64
f 52/52/52 41/41/41 53/53/53
f 62/62/62 41/41/41 63/63/63
f 53/53/53 41/41/41 54/54/54
f 61/61/61 41/41/41 62/62/62
f 54/54/54 41/41/41 55/55/55
f 60/60/60 41/41/41 61/61/61
f 55/55/55 41/41/41 56/56/56
f 59/59/59 41/41/41 60/60/60
f 56/56/56 41/41/41 57/57/57
f 58/58/58 41/41/41 59/59/59
f 57/57/57 41/41/41 58/58/58
