g lantern1shadow
v -0.638628125 0 0.587829232
v 0.0835832208 0 0.85059154
v 0.15991585 0 1.37191606
v 0.615133464 0 0.586723685
v -0.89497143 0 0.900738895
v 1.28009713 0 0.945254087
v -0.875641108 0 -0.00634292513
v 0.833302259 0 0.0672396868
v -1.4125917 0 0.140688494
v 4.6285553 0 -1.19362628
v -0.433572352 0 -0.742157042
v -0.868261635 0 -1.39273512
v 1.98263073 0 -4.66923285
v 0.192843169 0 -0.844908595
v 3.4834795 0 -4.66923428
v 0.683810055 0 -0.494722396
v 4.6285553 0 -3.4220922
vt 0.128115341 0.129791081
vt 0.247664064 0.0862956196
vt 0.260299504 0
vt 0.335652351 0.129974023
vt 0.0856824592 0.0779946893
vt 0.445724875 0.0706259087
vt 0.0888822228 0.228145272
vt 0.37176618 0.215964943
vt 0 0.203806996
vt 1 0.42467764
vt 0.162058517 0.349945605
vt 0.0901037678 0.457636803
vt 0.562016129 1
vt 0.265750021 0.366954178
vt 0.810453892 1
vt 0.347020507 0.308987319
vt 1 0.793558776
vn -0 1 0
vn -0 1 0
vn -0 1 0
vn -0 1 0
vn -0 1 0
vn -0 1 0
vn -0 1 0
vn -0 1 0
vn -0 1 0
vn -0 1 0
vn -0 1 0
vn -0 1 0
vn -0 1 0
vn -0 1 0
vn -0 1 0
vn -0 1 0
vn -0 1 0
g lantern1shadow_0
f 3/3/3 2/2/2 1/1/1
f 2/2/2 3/3/3 4/4/4
f 5/5/5 3/3/3 1/1/1
f 3/3/3 6/6/6 4/4/4
f 5/5/5 1/1/1 7/7/7
f 4/4/4 6/6/6 8/8/8
f 9/9/9 5/5/5 7/7/7
f 6/6/6 10/10/10 8/8/8
f 9/9/9 7/7/7 11/11/11
f 12/12/12 9/9/9 11/11/11
f 13/13/13 12/12/12 11/11/11
f 14/14/14 13/13/13 11/11/11
f 15/15/15 13/13/13 14/14/14
f 8/8/8 10/10/10 16/16/16
f 15/15/15 14/14/14 16/16/16
f 10/10/10 17/17/17 16/16/16
f 17/17/17 15/15/15 16/16/16
