g notepad1
v -1.27640271 0.215795279 2.62122035
v -1.71218133 0.215795279 -2.35975313
v 1.27640271 0.215795279 -2.62122035
v 1.71218133 0.215795279 2.35975313
v -1.27640271 0.0657952875 2.62122035
v -1.27640271 0.215795279 2.62122035
v 1.71218133 0.215795279 2.35975313
v 1.71218133 0.0657952875 2.35975313
v 1.71218133 0.0657952875 2.35975313
v 1.71218133 0.215795279 2.35975313
v 1.27640271 0.215795279 -2.62122035
v 1.27640271 0.0657952875 -2.62122035
v 1.27640271 0.0657952875 -2.62122035
v 1.27640271 0.215795279 -2.62122035
v -1.71218133 0.215795279 -2.35975313
v -1.71218133 0.0657952875 -2.35975313
v -1.71218133 0.0657952875 -2.35975313
v -1.71218133 0.215795279 -2.35975313
v -1.27640271 0.215795279 2.62122035
v -1.27640271 0.0657952875 2.62122035
vt 0.000575091981 0.00121418945
vt 0.000575152226 0.9995085
vt 0.599551857 0.9995085
vt 0.599551737 0.00121414382
vt 0.677963078 0.9995085
vt 0.707913399 0.9995085
vt 0.707913518 0.400498867
vt 0.677963197 0.400498867
vt 0.63497436 0.00115915574
vt 0.605023801 0.00115915574
vt 0.60502404 0.9995085
vt 0.634974599 0.999508381
vt 0.712174535 0.9995085
vt 0.742125094 0.9995085
vt 0.742125213 0.400499016
vt 0.712174654 0.400499016
vt 0.642413318 0.9995085
vt 0.672363758 0.9995085
vt 0.672363877 0.00115904771
vt 0.642413557 0.00115904771
vn -0 1 0
vn -0 1 0
vn -0 1 0
vn -0 1 0
vn 0.0871557295 0 0.99619472
vn 0.0871557295 0 0.99619472
vn 0.0871557295 0 0.99619472
vn 0.0871557295 0 0.99619472
vn 0.99619472 0 -0.0871557295
vn 0.99619472 0 -0.0871557295
vn 0.99619472 0 -0.0871557295
vn 0.99619472 0 -0.0871557295
vn -0.0871557295 0 -0.99619472
vn -0.0871557295 0 -0.99619472
vn -0.0871557295 0 -0.99619472
vn -0.0871557295 0 -0.99619472
vn -0.99619472 0 0.0871557295
vn -0.99619472 0 0.0871557295
vn -0.99619472 0 0.0871557295
vn -0.99619472 0 0.0871557295
g notepad1_0
f 3/3/3 2/2/2 1/1/1
f 4/4/4 3/3/3 1/1/1
f 7/7/7 6/6/6 5/5/5
f 8/8/8 7/7/7 5/5/5
f 11/11/11 10/10/10 9/9/9
f 12/12/12 11/11/11 9/9/9
f 15/15/15 14/14/14 13/13/13
f 16/16/16 15/15/15 13/13/13
f 19/19/19 18/18/18 17/17/17
f 20/20/20 19/19/19 17/17/17
