g piecesShadow2
v -0.457708269 0 -0.259563297
v 0.795586586 0 -1.04310536
v 1.08507037 0 -0.753602207
v 0.210593671 0 0.457708269
v -0.457708269 0 0.117825493
v -0.134822994 0 0.457708269
vt 0 0.477921903
vt 0.835076749 0.99999994
vt 1.02796113 0.807102561
vt 0.445292979 1.11758709E-07
vt -9.31322575E-10 0.226465791
vt 0.215140089 1.2393788E-07
vn -0 1 0
vn -0 1 0
vn -0 1 0
vn -0 1 0
vn -0 1 0
vn -0 1 0
g piecesShadow2_0
f 3/3/3 2/2/2 1/1/1
f 4/4/4 3/3/3 1/1/1
f 5/5/5 4/4/4 1/1/1
f 6/6/6 4/4/4 5/5/5
