g teaCup1shadow
v 1.57562757 0 -2.73365474
v 3.14488029 0 -3.63073087
v 3.27479482 0 -3.59204245
v 4.7215271 0 -2.86644149
v 5.007236 0 -1.5264914
v 3.20933771 0 -0.273291409
v 0.621295512 0 -1.00872827
v 1.12345624 0 -0.233753383
v 0.0818429813 0 -1.12252915
v 0.739178002 0 0.62582612
v 0.10796205 0 -2.93093157
v 2.73290467 0 0.753431439
v -0.390076518 0 -0.929410815
v -1.28430557 0 -2.3427372
v 0.193270311 0 0.816711187
v -0.699814618 0 -0.547714651
v -2.18079257 0 -1.85284781
v -2.53802514 0 -1.30931652
v -0.747550726 0 0.170386896
v -2.53802466 0 0.696684122
v -0.497895598 0 0.565317392
v -1.86448085 0 1.99435174
v 1.5147897 0 2.17747259
v 0.501464307 0 2.59741759
vt 0.545196891 0.81722182
vt 0.753175437 0.95473814
vt 0.770393491 0.948807478
vt 0.962134004 0.837576985
vt 1 0.632170558
vt 0.761718154 0.440062523
vt 0.418715894 0.552800894
vt 0.48526901 0.434001744
vt 0.347220361 0.570245922
vt 0.434339225 0.302233338
vt 0.35068205 0.84746331
vt 0.698574781 0.282672048
vt 0.284675181 0.540642083
vt 0.166159898 0.757296681
vt 0.361988127 0.272971779
vt 0.243624493 0.482130289
vt 0.0473453254 0.682199597
vt 0 0.598879457
vt 0.237297833 0.37204954
vt 0 0.291371405
vt 0.270385474 0.311508983
vt 0.0892671049 0.0924465209
vt 0.537133753 0.0643750206
vt 0.402834147 0
vn -0 1 0
vn -0 1 0
vn -0 1 0
vn -0 1 0
vn -0 1 0
vn -0 1 0
vn -0 1 0
vn -0 1 0
vn -0 1 0
vn -0 1 0
vn -0 1 0
vn -0 1 0
vn -0 1 0
vn -0 1 0
vn -0 1 0
vn -0 1 0
vn -0 1 0
vn -0 1 0
vn -0 1 0
vn -0 1 0
vn -0 1 0
vn -0 1 0
vn -0 1 0
vn -0 1 0
g teaCup1shadow_0
f 3/3/3 2/2/2 1/1/1
f 1/1/1 4/4/4 3/3/3
f 1/1/1 5/5/5 4/4/4
f 1/1/1 6/6/6 5/5/5
f 1/1/1 7/7/7 6/6/6
f 7/7/7 8/8/8 6/6/6
f 9/9/9 7/7/7 1/1/1
f 6/6/6 8/8/8 10/10/10
f 11/11/11 9/9/9 1/1/1
f 12/12/12 6/6/6 10/10/10
f 13/13/13 9/9/9 11/11/11
f 14/14/14 13/13/13 11/11/11
f 12/12/12 10/10/10 15/15/15
f 16/16/16 13/13/13 14/14/14
f 17/17/17 16/16/16 14/14/14
f 18/18/18 16/16/16 17/17/17
f 19/19/19 16/16/16 18/18/18
f 20/20/20 19/19/19 18/18/18
f 21/21/21 19/19/19 20/20/20
f 22/22/22 21/21/21 20/20/20
f 21/21/21 22/22/22 15/15/15
f 15/15/15 23/23/23 12/12/12
f 22/22/22 24/24/24 15/15/15
f 15/15/15 24/24/24 23/23/23
